<?xml version="1.0" encoding="utf-8"?>
<svg version="1.1" width="500px" height="500px" viewBox="0 0 128 128" style="shape-rendering:geometricPrecision; text-rendering:geometricPrecision; image-rendering:optimizeQuality; fill-rule:evenodd; clip-rule:evenodd" xmlns="http://www.w3.org/2000/svg">
  <defs/>
  <g>
    <path style="opacity:1" fill="#15a7e4" d="M 58.5,68.5 C 43.3978,61.0503 27.3978,56.0503 10.5,53.5C 10.5,42.5 10.5,31.5 10.5,20.5C 28.8496,18.7827 44.6829,24.116 58,36.5C 58.4998,47.1615 58.6665,57.8281 58.5,68.5 Z"/>
  </g>
  <g>
    <path style="opacity:1" fill="#14a7e3" d="M 116.5 20.5 C 116.5 31.5 116.5 42.5 116.5 53.5 C 99.151 55.35 82.194 61.097 66.326 69.053 C 66.121 59.075 66.168 48.522 66.5 38.5 C 79.96 24.124 96.627 18.124 116.5 20.5 Z"/>
  </g>
  <g>
    <path style="opacity:1" fill="#0b202e" d="M 116.5 20.5 C 117.33 31.326 122.061 29.509 123.5 28.5 C 124.368 47.783 123.662 81.636 123.354 93.363 C 123.314 94.886 122.412 95.372 121.474 97.3 C 114.696 97.843 112.927 97.783 107.5 97.5 C 107.198 100.059 107.532 102.393 108.5 104.5 C 112.152 106.787 116.152 108.621 120.5 110 C 123.613 112.057 124.984 113.512 120.5 115.5 C 110.833 115.5 101.167 115.5 91.5 115.5 C 83.555 105.887 73.712 96.321 64.323 87.934 C 64.814 87.892 65.195 85.309 69.135 84.275 C 76.985 82.215 76.332 90.516 77.95 91.715 C 84.56 91.081 91.777 90.699 98.5 90 C 98.833 89.667 99.167 89.333 99.5 89 C 94.241 82.667 94.241 76.333 99.5 70 C 100.437 69.308 101.789 68.195 102.186 69.22 C 98.129 74.02 97.609 79.967 102 84.5 C 102.333 81.5 102.667 78.5 103 75.5 C 104.011 74.663 105.178 74.33 106.5 74.5 C 106.5 79.5 106.5 84.5 106.5 89.5 C 108.415 89.785 110.081 89.451 111.5 88.5 C 113.39 88.704 114.89 88.037 116 86.5 C 116.726 81.448 116.5 31.5 116.5 20.5 M 100.5 98.5 C 101.598 99.601 101.765 100.934 101 102.5 C 99.698 101.915 92.44 99.971 92.761 98.423 M 64.496 27.266 C 74.412 18.342 86.082 13.409 99.5 12 C 107.493 11.5 115.493 11.334 123.5 11.5 C 124.373 15.769 123.794 19.411 123.588 23.81 C 121.063 24.715 123.166 23.611 121.042 25.241 C 120.194 26.976 123.663 28.474 123.5 28.5 C 122.061 29.509 117.33 31.326 116.5 20.5 C 96.627 18.124 79.96 24.124 66.5 38.5 C 65.766 69.206 66.628 62.901 66.449 79.502 C 61.622 82.325 60.55 85.548 58.5 83.5 C 58.5 78.5 58.5 73.5 58.5 68.5 C 58.667 57.828 58.5 47.162 58 36.5 C 44.683 24.116 28.85 18.783 10.5 20.5 C 10.5 31.5 10.5 42.5 10.5 53.5 C 10.5 58.5 10.5 63.5 10.5 68.5 C 10.5 69.833 10.5 71.167 10.5 72.5 C 10.5 77.833 10.5 83.167 10.5 88.5 C 22.47 89.784 34.47 90.784 46.5 91.5 C 48.986 93.155 50.986 95.322 52.5 98 C 48.362 103.787 44.362 109.621 40.5 115.5 C 29.252 115.821 19.486 115.108 6.811 115.207 C 3.131 112.937 5.145 111.84 7.5 110 C 16.049 107.099 36.564 99.105 38.5 98.292 C 37.207 97.802 14.778 97.664 4.603 97.494 C 3.467 96.349 2.83 94.896 1.966 93.708 C 1.642 66.997 1.509 40.122 2.5 13.5 C 23.977 8.411 43.344 13.405 60.534 27.16"/>
  </g>
  <g>
    <path style="opacity:1" fill="#eceff4" d="M 30.896 35.469 C 33.864 35.595 35.468 37.126 36.5 40 C 38.833 40.333 41.167 40.667 43.5 41 C 44.517 42.05 43.319 43.989 42.635 45.273 C 36.233 44.298 30.163 43.797 21.5 45.5 C 21.287 43.856 19.487 42.979 22.662 41 C 24.635 40.505 25.778 41.373 28.5 40.5 C 29.384 38.2 29.454 36.789 30.896 35.469 Z"/>
  </g>
  <g>
    <path style="opacity:1" fill="#e9eef4" d="M 94.5 35.5 C 97.833 35.5 99.5 37.167 99.5 40.5 C 102.596 39.907 104.929 40.907 106.5 43.5 C 106.291 44.086 104.477 45.576 104.02 45.99 C 94.482 44.246 92.167 45.667 85.5 45 C 84.549 44.283 82.936 42.634 85.593 41.181 C 93.055 39.505 90.786 36.96 94.5 35.5 Z"/>
  </g>
  <g>
    <path style="opacity:1" fill="#1661ac" d="M 10.5,53.5 C 27.3978,56.0503 43.3978,61.0503 58.5,68.5C 58.5,73.5 58.5,78.5 58.5,83.5C 43.3851,75.606 27.3851,70.606 10.5,68.5C 10.5,63.5 10.5,58.5 10.5,53.5 Z"/>
  </g>
  <g>
    <path style="opacity:1" fill="#165da6" d="M 66.5 79.5 C 65.504 66.336 66.766 69.104 66.598 69.042 C 83.103 60.858 99.151 55.35 116.5 53.5 C 116.5 55.833 116.5 58.167 116.5 60.5 C 97.991 62.112 81.324 68.446 66.5 79.5 Z"/>
  </g>
  <g/>
  <g>
    <path style="opacity:1" fill="#edeff3" d="M 116.5 60.5 C 116.5 62.167 116.5 63.833 116.5 65.5 C 109.565 65.116 109.232 67.116 115.5 71.5 C 116.559 76.448 116.726 81.448 116 86.5 C 114.89 88.037 113.39 88.704 111.5 88.5 C 110.957 88.44 110.624 88.107 110.5 87.5 C 115.002 78.677 112.668 72.01 103.5 67.5 C 102.893 67.624 102.56 67.957 102.5 68.5 C 90.574 71.963 79.574 77.297 69.5 84.5 C 68.391 84.443 66.5 80.833 66.5 79.5 C 81.324 68.446 97.991 62.112 116.5 60.5 Z"/>
  </g>
  <g>
    <path style="opacity:1" fill="#255a9f" d="M 116.5 65.5 C 116.795 67.735 116.538 65.324 116.418 71.803 C 107.969 68.395 109.565 65.116 116.5 65.5 Z"/>
  </g>
  <g>
    <path style="opacity:1" fill="#f6f8fa" d="M 10.5 68.5 C 27.385 70.606 44.636 76.2 59.751 84.094 C 62.608 85.549 83.674 105.799 91.5 115.5 C 74.5 115.5 57.5 115.5 40.5 115.5 C 44.362 109.621 48.362 103.787 52.5 98 C 50.986 95.322 48.986 93.155 46.5 91.5 C 35.953 82.558 23.953 76.225 10.5 72.5 C 10.5 71.167 10.5 69.833 10.5 68.5 Z"/>
  </g>
  <g>
    <path style="opacity:1" fill="#165fa8" d="M 102.5,68.5 C 102.672,69.4916 102.338,70.1583 101.5,70.5C 101.103,69.475 100.437,69.3083 99.5,70C 94.2407,76.3333 94.2407,82.6667 99.5,89C 99.1667,89.3333 98.8333,89.6667 98.5,90C 91.7767,90.6994 85.11,91.3661 78.5,92C 75.3098,89.6356 72.3098,87.1356 69.5,84.5C 79.5736,77.2968 90.5736,71.9634 102.5,68.5 Z"/>
  </g>
  <g>
    <path style="opacity:1" fill="#8690b0" d="M 111.5 88.5 C 110.081 89.451 108.415 89.785 106.5 89.5 C 106.5 84.5 106.5 79.5 106.5 74.5 C 105.178 74.33 104.011 74.663 103 75.5 C 102.667 78.5 102.333 81.5 102 84.5 C 97.609 79.967 97.003 75.555 101.06 70.755 C 101.898 70.413 102.893 67.624 103.5 67.5 C 112.668 72.01 115.002 78.677 110.5 87.5 C 110.624 88.107 110.957 88.44 111.5 88.5 Z"/>
  </g>
  <g>
    <path style="opacity:1" fill="#165faa" d="M 10.5,72.5 C 23.9533,76.225 35.9533,82.5583 46.5,91.5C 34.47,90.7836 22.47,89.7836 10.5,88.5C 10.5,83.1667 10.5,77.8333 10.5,72.5 Z"/>
  </g>
</svg>